<svg width="24" height="16" viewBox="0 0 24 16" fill="none" xmlns="http://www.w3.org/2000/svg">
    <path d="M0 0.708252V15.2899H24V0.708252H0ZM12 13.3899C9.02236 13.3899 6.61037 10.9755 6.61037 7.99865C6.61037 5.02181 9.02316 2.60821 12 2.60821C14.9768 2.60821 17.3888 5.02181 17.3888 7.99865C17.3888 10.9755 14.9784 13.3899 12 13.3899Z"
          fill="#3E4C59" fill-opacity="0.85"/>
    <path d="M13.7035 7.90771C13.4444 7.72926 12.9523 7.53888 12.2259 7.33576V5.05248C12.6571 5.06844 12.9715 5.23335 13.1691 5.55003C13.2756 5.72204 13.3395 5.92678 13.3603 6.16449H14.1811C14.1643 5.63409 13.9915 5.20774 13.6587 4.88529C13.326 4.56204 12.8468 4.3797 12.2259 4.33492V3.72046H11.7802V4.34363C11.1522 4.35007 10.6634 4.54367 10.3147 4.92605C9.96581 5.30762 9.79232 5.73559 9.79232 6.21007C9.79232 6.74208 9.95388 7.15811 10.2771 7.45723C10.6004 7.75728 11.102 7.97167 11.7804 8.09957V10.6556C11.2516 10.6116 10.89 10.4131 10.6948 10.0604C10.5836 9.86358 10.5155 9.55079 10.4915 9.12282H9.66187C9.66187 9.66046 9.74982 10.086 9.92827 10.4028C10.2539 10.986 10.8715 11.3092 11.7802 11.3684V12.2788H12.2259V11.3684C12.7915 11.3061 13.2243 11.1788 13.5243 10.9852C14.0659 10.6349 14.3354 10.0436 14.3354 9.21239C14.3355 8.63573 14.1252 8.20133 13.7035 7.90771ZM11.7812 7.24767C11.4308 7.17889 11.1532 7.05648 10.9468 6.88205C10.7405 6.70682 10.6373 6.46441 10.6373 6.15483C10.6373 5.89889 10.7244 5.65326 10.8988 5.41877C11.0749 5.18441 11.3685 5.05959 11.7812 5.04363V7.24767ZM13.3324 10.0932C13.1291 10.4589 12.7604 10.6541 12.226 10.6789V8.21246C12.6156 8.31892 12.8948 8.43006 13.0604 8.55006C13.3467 8.75412 13.4924 9.05002 13.4924 9.44125C13.4924 9.68768 13.4387 9.90608 13.3324 10.0932Z"
          fill="#3E4C59" fill-opacity="0.85"/>
</svg>
