<svg width="24" height="24" viewBox="0 0 24 24" fill="none" xmlns="http://www.w3.org/2000/svg">
    <g clip-path="url(#clip0_0_1580)">
        <path d="M21.0446 19.6156V15.9147C21.0446 15.1196 20.4127 14.4749 19.6332 14.4749H19.2643V0.963767C19.2643 0.842904 19.2048 0.73012 19.106 0.663492L18.2102 0.0594124C17.9756 -0.0987448 17.6628 0.0728242 17.6628 0.359688V4.69899L17.3959 3.96432C17.0368 2.97624 16.113 2.32048 15.08 2.32048H8.91207C7.87303 2.32048 6.94512 2.98385 6.59051 3.9802L6.33469 4.69899V0.359688C6.33469 0.0728634 6.0219 -0.0987448 5.7873 0.0594124L4.89141 0.663453C4.79258 0.73008 4.73311 0.842865 4.73311 0.963728V14.4749H4.3642C3.58475 14.4749 2.95287 15.1195 2.95287 15.9147V19.6156H2.35158C2.15673 19.6156 1.99878 19.7767 1.99878 19.9756V21.9655C1.99878 22.1643 2.15673 22.3255 2.35158 22.3255H3.87374V23.2793C3.87374 23.6769 4.18968 23.9991 4.57943 23.9991H6.44935C6.8391 23.9991 7.15504 23.6768 7.15504 23.2793V22.3255H16.8425V23.2793C16.8425 23.6769 17.1585 23.9991 17.5482 23.9991H19.4181C19.8079 23.9991 20.1238 23.6768 20.1238 23.2793V22.3255H21.6459C21.8408 22.3255 21.9988 22.1643 21.9988 21.9655V19.9756C21.9988 19.7768 21.8408 19.6156 21.6459 19.6156L21.0446 19.6156ZM6.80216 6.70405H17.1953V10.2507H6.80216V6.70405ZM6.56048 18.6083H5.35511C4.98682 18.6083 4.68825 18.3037 4.68825 17.928V17.9108C4.68825 17.5351 4.98682 17.2305 5.35511 17.2305H6.56045C6.92874 17.2305 7.22731 17.5351 7.22731 17.9108V17.928C7.22734 18.3037 6.92878 18.6083 6.56048 18.6083ZM14.3973 18.8089H9.60015C9.2104 18.8089 8.89446 18.4865 8.89446 18.089V13.5276C8.89446 13.1301 9.2104 12.8078 9.60015 12.8078H14.3973C14.787 12.8078 15.103 13.1301 15.103 13.5276V18.089C15.103 18.4865 14.787 18.8089 14.3973 18.8089ZM18.6423 18.6083H17.437C17.0687 18.6083 16.7701 18.3037 16.7701 17.928V17.9108C16.7701 17.5351 17.0687 17.2305 17.437 17.2305H18.6423C19.0106 17.2305 19.3092 17.5351 19.3092 17.9108V17.928C19.3092 18.3037 19.0106 18.6083 18.6423 18.6083ZM14.29 15.4423H9.69613C9.5032 15.4423 9.34682 15.2828 9.34682 15.086V15.0787C9.34682 14.8819 9.5032 14.7224 9.69613 14.7224H14.29C14.483 14.7224 14.6394 14.8819 14.6394 15.0787V15.086C14.6394 15.2828 14.483 15.4423 14.29 15.4423ZM14.29 14.0025H9.69613C9.5032 14.0025 9.34682 13.843 9.34682 13.6461V13.6389C9.34682 13.4421 9.5032 13.2826 9.69613 13.2826H14.29C14.483 13.2826 14.6394 13.4421 14.6394 13.6389V13.6461C14.6394 13.843 14.483 14.0025 14.29 14.0025ZM14.29 18.322H9.69613C9.5032 18.322 9.34682 18.1625 9.34682 17.9656V17.9584C9.34682 17.7616 9.5032 17.6021 9.69613 17.6021H14.29C14.483 17.6021 14.6394 17.7616 14.6394 17.9584V17.9656C14.6394 18.1625 14.483 18.322 14.29 18.322ZM14.29 16.8822H9.69613C9.5032 16.8822 9.34682 16.7226 9.34682 16.5258V16.5186C9.34682 16.3218 9.5032 16.1623 9.69613 16.1623H14.29C14.483 16.1623 14.6394 16.3218 14.6394 16.5186V16.5258C14.6394 16.7226 14.483 16.8822 14.29 16.8822Z"
              fill="white" fill-opacity="0.8"/>
    </g>
    <defs>
        <clipPath id="clip0_0_1580">
            <rect width="24" height="24" fill="white" stroke="white"/>
        </clipPath>
    </defs>
</svg>
