<svg width="24" height="18" viewBox="0 0 24 18" fill="none" xmlns="http://www.w3.org/2000/svg">
<path d="M24 4.64025V3.37459C24 1.9248 22.8247 0.749512 21.3749 0.749512H2.62435C1.17455 0.749512 -0.000732422 1.9248 -0.000732422 3.37459V4.64025C-0.000732422 4.76968 0.104224 4.87463 0.23365 4.87463H23.7656C23.895 4.87463 24 4.76968 24 4.64025Z" fill="#3E4C59" fill-opacity="0.4"/>
<path d="M-0.000732422 6.60914V14.625C-0.000732422 16.0748 1.17455 17.2501 2.62435 17.2501H21.3749C22.8247 17.2501 24 16.0748 24 14.625V6.60914C24 6.47971 23.895 6.37476 23.7656 6.37476H0.23365C0.104224 6.37476 -0.000732422 6.47971 -0.000732422 6.60914ZM5.99944 12.7499C5.99944 13.1641 5.66362 13.5 5.24942 13.5H4.4994C4.0852 13.5 3.74938 13.1641 3.74938 12.7499V11.9999C3.74938 11.5857 4.0852 11.2499 4.4994 11.2499H5.24942C5.66362 11.2499 5.99944 11.5857 5.99944 11.9999V12.7499Z" fill="#3E4C59" fill-opacity="0.4"/>
</svg>
